<svg xmlns="http://www.w3.org/2000/svg" xmlns:xlink="http://www.w3.org/1999/xlink" width="537" zoomAndPan="magnify" viewBox="0 0 402.75 212.249992" height="283" preserveAspectRatio="xMidYMid meet" version="1.0"><defs><g/><clipPath id="7daffbccda"><path d="M 301.3125 75.015625 L 344.660156 75.015625 L 344.660156 119.109375 L 301.3125 119.109375 Z M 301.3125 75.015625 " clip-rule="nonzero"/></clipPath><clipPath id="9ad7224652"><path d="M 321 112 L 326 112 L 326 119.109375 L 321 119.109375 Z M 321 112 " clip-rule="nonzero"/></clipPath><clipPath id="1413830c93"><path d="M 4.960938 124 L 397.324219 124 L 397.324219 139.472656 L 4.960938 139.472656 Z M 4.960938 124 " clip-rule="nonzero"/></clipPath></defs><g fill="#000000" fill-opacity="1"><g transform="translate(0.584515, 119.951135)"><g><path d="M 27.125 0.609375 C 22.125 0.609375 17.753906 -0.269531 14.015625 -2.03125 C 10.285156 -3.789062 7.394531 -6.269531 5.34375 -9.46875 C 3.289062 -12.675781 2.265625 -16.421875 2.265625 -20.703125 L 2.265625 -20.796875 C 2.265625 -25.109375 3.28125 -28.875 5.3125 -32.09375 C 7.351562 -35.3125 10.238281 -37.816406 13.96875 -39.609375 C 17.695312 -41.410156 22.097656 -42.3125 27.171875 -42.3125 C 30.046875 -42.3125 33.023438 -41.96875 36.109375 -41.28125 C 39.191406 -40.601562 42.03125 -39.582031 44.625 -38.21875 L 42.421875 -33.890625 C 40.296875 -34.992188 37.957031 -35.878906 35.40625 -36.546875 C 32.863281 -37.210938 30.117188 -37.546875 27.171875 -37.546875 C 23.160156 -37.546875 19.679688 -36.859375 16.734375 -35.484375 C 13.796875 -34.117188 11.519531 -32.1875 9.90625 -29.6875 C 8.300781 -27.1875 7.5 -24.222656 7.5 -20.796875 L 7.5 -20.703125 C 7.5 -17.378906 8.3125 -14.46875 9.9375 -11.96875 C 11.5625 -9.46875 13.847656 -7.53125 16.796875 -6.15625 C 19.742188 -4.789062 23.1875 -4.109375 27.125 -4.109375 C 29.550781 -4.109375 32.085938 -4.398438 34.734375 -4.984375 C 37.390625 -5.566406 39.953125 -6.472656 42.421875 -7.703125 L 44.625 -3.390625 C 42.195312 -2.191406 39.453125 -1.222656 36.390625 -0.484375 C 33.328125 0.242188 30.238281 0.609375 27.125 0.609375 Z M 27.125 0.609375 "/></g></g></g><g fill="#000000" fill-opacity="1"><g transform="translate(44.803025, 119.951135)"><g><path d="M 22.234375 0.671875 C 18.160156 0.671875 14.625 0.0546875 11.625 -1.171875 C 8.632812 -2.410156 6.328125 -4.160156 4.703125 -6.421875 C 3.078125 -8.679688 2.265625 -11.351562 2.265625 -14.4375 L 2.265625 -14.59375 C 2.265625 -17.664062 3.078125 -20.316406 4.703125 -22.546875 C 6.328125 -24.773438 8.632812 -26.488281 11.625 -27.6875 C 14.625 -28.882812 18.160156 -29.484375 22.234375 -29.484375 C 26.347656 -29.484375 29.894531 -28.882812 32.875 -27.6875 C 35.851562 -26.488281 38.15625 -24.773438 39.78125 -22.546875 C 41.40625 -20.316406 42.21875 -17.664062 42.21875 -14.59375 L 42.21875 -14.4375 C 42.21875 -11.351562 41.40625 -8.679688 39.78125 -6.421875 C 38.15625 -4.160156 35.851562 -2.410156 32.875 -1.171875 C 29.894531 0.0546875 26.347656 0.671875 22.234375 0.671875 Z M 22.234375 -3.90625 C 25.347656 -3.90625 28.007812 -4.359375 30.21875 -5.265625 C 32.425781 -6.171875 34.113281 -7.421875 35.28125 -9.015625 C 36.445312 -10.609375 37.03125 -12.429688 37.03125 -14.484375 L 37.03125 -14.59375 C 37.03125 -17.738281 35.738281 -20.242188 33.15625 -22.109375 C 30.570312 -23.972656 26.929688 -24.90625 22.234375 -24.90625 C 17.578125 -24.90625 13.945312 -23.972656 11.34375 -22.109375 C 8.75 -20.242188 7.453125 -17.738281 7.453125 -14.59375 L 7.453125 -14.484375 C 7.453125 -12.429688 8.039062 -10.609375 9.21875 -9.015625 C 10.394531 -7.421875 12.085938 -6.171875 14.296875 -5.265625 C 16.503906 -4.359375 19.148438 -3.90625 22.234375 -3.90625 Z M 22.234375 -3.90625 "/></g></g></g><g fill="#000000" fill-opacity="1"><g transform="translate(89.278646, 119.951135)"><g><path d="M 8.21875 0 L 3.140625 0 L 3.140625 -27.625 C 5.867188 -28.101562 8.710938 -28.53125 11.671875 -28.90625 C 14.640625 -29.289062 17.476562 -29.484375 20.1875 -29.484375 C 23.945312 -29.484375 27.050781 -29.035156 29.5 -28.140625 C 31.945312 -27.253906 33.617188 -25.5625 34.515625 -23.0625 C 35.441406 -25.457031 37.109375 -27.125 39.515625 -28.0625 C 41.929688 -29.007812 45.054688 -29.484375 48.890625 -29.484375 C 54.472656 -29.484375 58.519531 -28.570312 61.03125 -26.75 C 63.550781 -24.9375 64.8125 -21.859375 64.8125 -17.515625 L 64.8125 0 L 59.671875 0 L 59.671875 -16.84375 C 59.671875 -19.65625 58.820312 -21.703125 57.125 -22.984375 C 55.4375 -24.265625 52.503906 -24.90625 48.328125 -24.90625 C 44.148438 -24.90625 41.203125 -24.265625 39.484375 -22.984375 C 37.773438 -21.703125 36.921875 -19.65625 36.921875 -16.84375 L 36.921875 0 L 31.84375 0 L 31.84375 -16.84375 C 31.84375 -19.789062 30.957031 -21.867188 29.1875 -23.078125 C 27.425781 -24.296875 24.507812 -24.90625 20.4375 -24.90625 C 18.488281 -24.90625 16.4375 -24.773438 14.28125 -24.515625 C 12.125 -24.265625 10.101562 -24.003906 8.21875 -23.734375 Z M 8.21875 0 "/></g></g></g><g fill="#000000" fill-opacity="1"><g transform="translate(157.173294, 119.951135)"><g><path d="M 20.078125 0.3125 C 16.140625 0.3125 12.921875 -0.0546875 10.421875 -0.796875 C 7.921875 -1.535156 6.082031 -2.769531 4.90625 -4.5 C 3.726562 -6.226562 3.140625 -8.5625 3.140625 -11.5 L 3.140625 -28.5625 L 8.21875 -28.5625 L 8.21875 -12.171875 C 8.21875 -9.265625 9.109375 -7.1875 10.890625 -5.9375 C 12.671875 -4.6875 15.628906 -4.0625 19.765625 -4.0625 C 21.753906 -4.0625 23.957031 -4.179688 26.375 -4.421875 C 28.789062 -4.660156 30.988281 -4.953125 32.96875 -5.296875 L 32.96875 -28.5625 L 38.109375 -28.5625 L 38.109375 -1.59375 C 35.234375 -1.039062 32.1875 -0.582031 28.96875 -0.21875 C 25.75 0.132812 22.785156 0.3125 20.078125 0.3125 Z M 20.078125 0.3125 "/></g></g></g><g fill="#000000" fill-opacity="1"><g transform="translate(198.362033, 119.951135)"><g><path d="M 8.21875 0 L 3.140625 0 L 3.140625 -27.625 C 5.972656 -28.144531 9 -28.582031 12.21875 -28.9375 C 15.4375 -29.300781 18.398438 -29.484375 21.109375 -29.484375 C 25.046875 -29.484375 28.21875 -29.113281 30.625 -28.375 C 33.039062 -27.632812 34.804688 -26.410156 35.921875 -24.703125 C 37.035156 -22.992188 37.59375 -20.664062 37.59375 -17.71875 L 37.59375 0 L 32.515625 0 L 32.515625 -16.84375 C 32.515625 -19.789062 31.625 -21.878906 29.84375 -23.109375 C 28.0625 -24.335938 25.097656 -24.953125 20.953125 -24.953125 C 18.960938 -24.953125 16.847656 -24.84375 14.609375 -24.625 C 12.367188 -24.40625 10.238281 -24.125 8.21875 -23.78125 Z M 8.21875 0 "/></g></g></g><g fill="#000000" fill-opacity="1"><g transform="translate(239.088542, 119.951135)"><g><path d="M 5.65625 -32.71875 C 4.789062 -32.71875 4.082031 -32.9375 3.53125 -33.375 C 2.988281 -33.820312 2.71875 -34.492188 2.71875 -35.390625 C 2.71875 -36.171875 2.984375 -36.800781 3.515625 -37.28125 C 4.046875 -37.757812 4.757812 -38 5.65625 -38 C 6.570312 -38 7.296875 -37.757812 7.828125 -37.28125 C 8.359375 -36.800781 8.625 -36.171875 8.625 -35.390625 C 8.625 -34.492188 8.347656 -33.820312 7.796875 -33.375 C 7.253906 -32.9375 6.539062 -32.71875 5.65625 -32.71875 Z M 8.21875 0 L 3.140625 0 L 3.140625 -28.5625 L 8.21875 -28.5625 Z M 8.21875 0 "/></g></g></g><g fill="#000000" fill-opacity="1"><g transform="translate(250.438556, 119.951135)"><g><path d="M 23.78125 0 L 3.140625 0 L 3.140625 -41.65625 L 23.78125 -41.65625 C 31.34375 -41.65625 37.066406 -39.847656 40.953125 -36.234375 C 44.835938 -32.617188 46.78125 -27.539062 46.78125 -21 L 46.78125 -20.90625 C 46.78125 -16.519531 45.878906 -12.757812 44.078125 -9.625 C 42.285156 -6.5 39.675781 -4.113281 36.25 -2.46875 C 32.832031 -0.820312 28.675781 0 23.78125 0 Z M 8.171875 -36.921875 L 8.171875 -4.71875 L 23.9375 -4.71875 C 27.632812 -4.71875 30.800781 -5.359375 33.4375 -6.640625 C 36.070312 -7.929688 38.085938 -9.789062 39.484375 -12.21875 C 40.890625 -14.65625 41.59375 -17.550781 41.59375 -20.90625 L 41.59375 -21 C 41.59375 -24.320312 40.890625 -27.164062 39.484375 -29.53125 C 38.085938 -31.894531 36.070312 -33.71875 33.4375 -35 C 30.800781 -36.28125 27.632812 -36.921875 23.9375 -36.921875 Z M 8.171875 -36.921875 "/></g></g></g><g fill="#000000" fill-opacity="1"><g transform="translate(346.857007, 119.951135)"><g><path d="M 27.53125 0.609375 C 22.394531 0.609375 17.929688 -0.273438 14.140625 -2.046875 C 10.359375 -3.828125 7.429688 -6.328125 5.359375 -9.546875 C 3.296875 -12.765625 2.265625 -16.515625 2.265625 -20.796875 L 2.265625 -20.90625 C 2.265625 -25.1875 3.296875 -28.9375 5.359375 -32.15625 C 7.429688 -35.375 10.359375 -37.867188 14.140625 -39.640625 C 17.929688 -41.421875 22.394531 -42.3125 27.53125 -42.3125 C 32.664062 -42.3125 37.125 -41.421875 40.90625 -39.640625 C 44.6875 -37.867188 47.601562 -35.375 49.65625 -32.15625 C 51.71875 -28.9375 52.75 -25.1875 52.75 -20.90625 L 52.75 -20.796875 C 52.75 -16.515625 51.71875 -12.765625 49.65625 -9.546875 C 47.601562 -6.328125 44.6875 -3.828125 40.90625 -2.046875 C 37.125 -0.273438 32.664062 0.609375 27.53125 0.609375 Z M 27.53125 -4.15625 C 31.570312 -4.15625 35.085938 -4.835938 38.078125 -6.203125 C 41.078125 -7.578125 43.40625 -9.515625 45.0625 -12.015625 C 46.726562 -14.515625 47.5625 -17.425781 47.5625 -20.75 L 47.5625 -20.859375 C 47.5625 -24.242188 46.726562 -27.1875 45.0625 -29.6875 C 43.40625 -32.1875 41.078125 -34.117188 38.078125 -35.484375 C 35.085938 -36.859375 31.570312 -37.546875 27.53125 -37.546875 C 23.414062 -37.546875 19.859375 -36.859375 16.859375 -35.484375 C 13.867188 -34.117188 11.5625 -32.191406 9.9375 -29.703125 C 8.3125 -27.222656 7.5 -24.273438 7.5 -20.859375 L 7.5 -20.75 C 7.5 -17.425781 8.328125 -14.515625 9.984375 -12.015625 C 11.648438 -9.515625 13.976562 -7.578125 16.96875 -6.203125 C 19.96875 -4.835938 23.488281 -4.15625 27.53125 -4.15625 Z M 27.53125 -4.15625 "/></g></g></g><g clip-path="url(#7daffbccda)"><path fill="#000000" d="M 345 119.363281 L 323.15625 75.019531 L 301.3125 119.363281 L 315.179688 119.363281 L 315.179688 107.925781 L 323.15625 103.515625 L 331.132812 107.925781 L 331.132812 119.363281 Z M 345 119.363281 " fill-opacity="1" fill-rule="nonzero"/></g><g clip-path="url(#9ad7224652)"><path fill="#000000" d="M 321.042969 112.617188 L 325.269531 112.617188 L 325.269531 119.363281 L 321.042969 119.363281 Z M 321.042969 112.617188 " fill-opacity="1" fill-rule="nonzero"/></g><g clip-path="url(#1413830c93)"><path fill="#000000" d="M 106.332031 127.410156 L 113.171875 134.628906 L 289.484375 134.628906 L 296.71875 126.996094 Z M 394.15625 130.660156 C 393.789062 130.660156 393.429688 130.597656 393.082031 130.476562 C 392.738281 130.355469 392.417969 130.179688 392.132812 129.949219 C 391.84375 129.722656 391.601562 129.449219 391.40625 129.136719 C 391.210938 128.828125 391.074219 128.492188 390.992188 128.132812 L 303.125 128.132812 L 292.375 139.472656 L 109.992188 139.472656 L 99.242188 128.132812 L 11.371094 128.132812 C 11.3125 128.390625 11.222656 128.636719 11.105469 128.875 C 10.988281 129.109375 10.839844 129.328125 10.667969 129.53125 C 10.496094 129.730469 10.300781 129.90625 10.085938 130.0625 C 9.871094 130.214844 9.640625 130.339844 9.394531 130.4375 C 9.148438 130.53125 8.894531 130.597656 8.628906 130.632812 C 8.367188 130.667969 8.105469 130.671875 7.84375 130.640625 C 7.578125 130.613281 7.324219 130.550781 7.074219 130.457031 C 6.828125 130.367188 6.59375 130.246094 6.375 130.097656 C 6.15625 129.949219 5.960938 129.773438 5.785156 129.578125 C 5.605469 129.382812 5.457031 129.164062 5.332031 128.929688 C 5.210938 128.699219 5.117188 128.453125 5.050781 128.195312 C 4.988281 127.9375 4.957031 127.675781 4.957031 127.414062 C 4.957031 127.148438 4.988281 126.886719 5.050781 126.632812 C 5.117188 126.375 5.210938 126.128906 5.332031 125.894531 C 5.457031 125.660156 5.605469 125.445312 5.785156 125.25 C 5.960938 125.050781 6.15625 124.878906 6.375 124.730469 C 6.59375 124.578125 6.828125 124.460938 7.074219 124.367188 C 7.324219 124.277344 7.578125 124.214844 7.84375 124.183594 C 8.105469 124.15625 8.367188 124.160156 8.628906 124.191406 C 8.894531 124.226562 9.148438 124.292969 9.394531 124.390625 C 9.640625 124.488281 9.871094 124.613281 10.085938 124.765625 C 10.300781 124.917969 10.496094 125.097656 10.667969 125.296875 C 10.839844 125.496094 10.988281 125.714844 11.105469 125.953125 C 11.222656 126.1875 11.3125 126.4375 11.371094 126.695312 L 99.863281 126.695312 L 110.613281 138.035156 L 291.753906 138.035156 L 302.503906 126.695312 L 390.996094 126.695312 C 391.085938 126.292969 391.246094 125.925781 391.476562 125.585938 C 391.707031 125.25 391.992188 124.964844 392.332031 124.734375 C 392.667969 124.5 393.039062 124.339844 393.4375 124.25 C 393.835938 124.15625 394.238281 124.144531 394.644531 124.203125 C 395.046875 124.265625 395.429688 124.398438 395.785156 124.601562 C 396.136719 124.808594 396.445312 125.070312 396.699219 125.390625 C 396.953125 125.710938 397.140625 126.066406 397.261719 126.457031 C 397.382812 126.847656 397.429688 127.25 397.398438 127.65625 C 397.367188 128.066406 397.265625 128.453125 397.085938 128.824219 C 396.910156 129.191406 396.667969 129.515625 396.371094 129.792969 C 396.070312 130.074219 395.726562 130.289062 395.347656 130.4375 C 394.964844 130.585938 394.570312 130.660156 394.160156 130.660156 Z M 394.15625 130.660156 " fill-opacity="1" fill-rule="nonzero"/></g></svg>